%TF.GenerationSoftware,KiCad,Pcbnew,7.0.5*%
%TF.CreationDate,2024-02-24T22:07:36+07:00*%
%TF.ProjectId,CN13_Case,434e3133-5f43-4617-9365-2e6b69636164,rev?*%
%TF.SameCoordinates,Original*%
%TF.FileFunction,Soldermask,Top*%
%TF.FilePolarity,Negative*%
%FSLAX46Y46*%
G04 Gerber Fmt 4.6, Leading zero omitted, Abs format (unit mm)*
G04 Created by KiCad (PCBNEW 7.0.5) date 2024-02-24 22:07:36*
%MOMM*%
%LPD*%
G01*
G04 APERTURE LIST*
G04 Aperture macros list*
%AMRoundRect*
0 Rectangle with rounded corners*
0 $1 Rounding radius*
0 $2 $3 $4 $5 $6 $7 $8 $9 X,Y pos of 4 corners*
0 Add a 4 corners polygon primitive as box body*
4,1,4,$2,$3,$4,$5,$6,$7,$8,$9,$2,$3,0*
0 Add four circle primitives for the rounded corners*
1,1,$1+$1,$2,$3*
1,1,$1+$1,$4,$5*
1,1,$1+$1,$6,$7*
1,1,$1+$1,$8,$9*
0 Add four rect primitives between the rounded corners*
20,1,$1+$1,$2,$3,$4,$5,0*
20,1,$1+$1,$4,$5,$6,$7,0*
20,1,$1+$1,$6,$7,$8,$9,0*
20,1,$1+$1,$8,$9,$2,$3,0*%
G04 Aperture macros list end*
%ADD10C,0.010000*%
%ADD11RoundRect,0.250000X-0.300000X2.050000X-0.300000X-2.050000X0.300000X-2.050000X0.300000X2.050000X0*%
%ADD12RoundRect,0.250002X-5.149998X4.449998X-5.149998X-4.449998X5.149998X-4.449998X5.149998X4.449998X0*%
%ADD13RoundRect,0.250000X-0.625000X0.400000X-0.625000X-0.400000X0.625000X-0.400000X0.625000X0.400000X0*%
%ADD14O,1.905000X2.000000*%
%ADD15R,1.905000X2.000000*%
%ADD16RoundRect,0.102000X2.700000X-1.450000X2.700000X1.450000X-2.700000X1.450000X-2.700000X-1.450000X0*%
%ADD17O,2.100000X3.600000*%
%ADD18RoundRect,0.250001X-0.799999X-1.549999X0.799999X-1.549999X0.799999X1.549999X-0.799999X1.549999X0*%
%ADD19C,3.200000*%
%ADD20RoundRect,0.102000X-1.800000X1.000000X-1.800000X-1.000000X1.800000X-1.000000X1.800000X1.000000X0*%
%ADD21RoundRect,0.250001X0.624999X-0.462499X0.624999X0.462499X-0.624999X0.462499X-0.624999X-0.462499X0*%
%ADD22RoundRect,0.102000X1.000000X1.800000X-1.000000X1.800000X-1.000000X-1.800000X1.000000X-1.800000X0*%
%ADD23C,0.800000*%
%ADD24C,0.700000*%
G04 APERTURE END LIST*
%TO.C,C3*%
D10*
X124032000Y-127540000D02*
X125132000Y-127540000D01*
X125132000Y-129040000D01*
X124032000Y-129040000D01*
X124032000Y-130240000D01*
X121332000Y-130240000D01*
X121332000Y-129040000D01*
X120232000Y-129040000D01*
X120232000Y-127540000D01*
X121332000Y-127540000D01*
X121332000Y-125640000D01*
X124032000Y-125640000D01*
X124032000Y-127540000D01*
G36*
X124032000Y-127540000D02*
G01*
X125132000Y-127540000D01*
X125132000Y-129040000D01*
X124032000Y-129040000D01*
X124032000Y-130240000D01*
X121332000Y-130240000D01*
X121332000Y-129040000D01*
X120232000Y-129040000D01*
X120232000Y-127540000D01*
X121332000Y-127540000D01*
X121332000Y-125640000D01*
X124032000Y-125640000D01*
X124032000Y-127540000D01*
G37*
X124032000Y-135140000D02*
X125132000Y-135140000D01*
X125132000Y-136640000D01*
X124032000Y-136640000D01*
X124032000Y-138540000D01*
X121332000Y-138540000D01*
X121332000Y-136640000D01*
X120232000Y-136640000D01*
X120232000Y-135140000D01*
X121332000Y-135140000D01*
X121332000Y-133940000D01*
X124032000Y-133940000D01*
X124032000Y-135140000D01*
G36*
X124032000Y-135140000D02*
G01*
X125132000Y-135140000D01*
X125132000Y-136640000D01*
X124032000Y-136640000D01*
X124032000Y-138540000D01*
X121332000Y-138540000D01*
X121332000Y-136640000D01*
X120232000Y-136640000D01*
X120232000Y-135140000D01*
X121332000Y-135140000D01*
X121332000Y-133940000D01*
X124032000Y-133940000D01*
X124032000Y-135140000D01*
G37*
%TO.C,C2*%
X110062000Y-135130000D02*
X111162000Y-135130000D01*
X111162000Y-136630000D01*
X110062000Y-136630000D01*
X110062000Y-138530000D01*
X107362000Y-138530000D01*
X107362000Y-136630000D01*
X106262000Y-136630000D01*
X106262000Y-135130000D01*
X107362000Y-135130000D01*
X107362000Y-133930000D01*
X110062000Y-133930000D01*
X110062000Y-135130000D01*
G36*
X110062000Y-135130000D02*
G01*
X111162000Y-135130000D01*
X111162000Y-136630000D01*
X110062000Y-136630000D01*
X110062000Y-138530000D01*
X107362000Y-138530000D01*
X107362000Y-136630000D01*
X106262000Y-136630000D01*
X106262000Y-135130000D01*
X107362000Y-135130000D01*
X107362000Y-133930000D01*
X110062000Y-133930000D01*
X110062000Y-135130000D01*
G37*
X110062000Y-127530000D02*
X111162000Y-127530000D01*
X111162000Y-129030000D01*
X110062000Y-129030000D01*
X110062000Y-130230000D01*
X107362000Y-130230000D01*
X107362000Y-129030000D01*
X106262000Y-129030000D01*
X106262000Y-127530000D01*
X107362000Y-127530000D01*
X107362000Y-125630000D01*
X110062000Y-125630000D01*
X110062000Y-127530000D01*
G36*
X110062000Y-127530000D02*
G01*
X111162000Y-127530000D01*
X111162000Y-129030000D01*
X110062000Y-129030000D01*
X110062000Y-130230000D01*
X107362000Y-130230000D01*
X107362000Y-129030000D01*
X106262000Y-129030000D01*
X106262000Y-127530000D01*
X107362000Y-127530000D01*
X107362000Y-125630000D01*
X110062000Y-125630000D01*
X110062000Y-127530000D01*
G37*
%TO.C,C1*%
X111078000Y-101622000D02*
X112178000Y-101622000D01*
X112178000Y-103122000D01*
X111078000Y-103122000D01*
X111078000Y-104322000D01*
X108378000Y-104322000D01*
X108378000Y-103122000D01*
X107278000Y-103122000D01*
X107278000Y-101622000D01*
X108378000Y-101622000D01*
X108378000Y-99722000D01*
X111078000Y-99722000D01*
X111078000Y-101622000D01*
G36*
X111078000Y-101622000D02*
G01*
X112178000Y-101622000D01*
X112178000Y-103122000D01*
X111078000Y-103122000D01*
X111078000Y-104322000D01*
X108378000Y-104322000D01*
X108378000Y-103122000D01*
X107278000Y-103122000D01*
X107278000Y-101622000D01*
X108378000Y-101622000D01*
X108378000Y-99722000D01*
X111078000Y-99722000D01*
X111078000Y-101622000D01*
G37*
X111078000Y-109222000D02*
X112178000Y-109222000D01*
X112178000Y-110722000D01*
X111078000Y-110722000D01*
X111078000Y-112622000D01*
X108378000Y-112622000D01*
X108378000Y-110722000D01*
X107278000Y-110722000D01*
X107278000Y-109222000D01*
X108378000Y-109222000D01*
X108378000Y-108022000D01*
X111078000Y-108022000D01*
X111078000Y-109222000D01*
G36*
X111078000Y-109222000D02*
G01*
X112178000Y-109222000D01*
X112178000Y-110722000D01*
X111078000Y-110722000D01*
X111078000Y-112622000D01*
X108378000Y-112622000D01*
X108378000Y-110722000D01*
X107278000Y-110722000D01*
X107278000Y-109222000D01*
X108378000Y-109222000D01*
X108378000Y-108022000D01*
X111078000Y-108022000D01*
X111078000Y-109222000D01*
G37*
%TD*%
D11*
%TO.C,U1*%
X139212000Y-107950000D03*
X137512000Y-107950000D03*
X135812000Y-107950000D03*
X134112000Y-107950000D03*
X132412000Y-107950000D03*
D12*
X135812000Y-117100000D03*
%TD*%
D13*
%TO.C,R2*%
X110062000Y-147182500D03*
X110062000Y-150282500D03*
%TD*%
D14*
%TO.C,Q1*%
X124968000Y-103632000D03*
X122428000Y-103632000D03*
D15*
X119888000Y-103632000D03*
%TD*%
D16*
%TO.C,L1*%
X137160000Y-135152000D03*
X137160000Y-125452000D03*
%TD*%
D17*
%TO.C,J2*%
X127000000Y-146304000D03*
D18*
X119380000Y-146304000D03*
%TD*%
%TO.C,J1*%
X119380000Y-94996000D03*
D17*
X127000000Y-94996000D03*
%TD*%
D19*
%TO.C,H4*%
X101092000Y-147828000D03*
%TD*%
%TO.C,H3*%
X140970000Y-147828000D03*
%TD*%
%TO.C,H2*%
X140970000Y-92456000D03*
%TD*%
%TO.C,H1*%
X101092000Y-92456000D03*
%TD*%
D20*
%TO.C,D3*%
X126492000Y-113694000D03*
X126492000Y-120494000D03*
%TD*%
D21*
%TO.C,D2*%
X110062000Y-144823500D03*
X110062000Y-141848500D03*
%TD*%
D22*
%TO.C,D1*%
X107090000Y-119126000D03*
X113890000Y-119126000D03*
%TD*%
D23*
X139446000Y-117602000D03*
X134620000Y-117602000D03*
X133350000Y-117602000D03*
X140208000Y-116586000D03*
X138684000Y-116586000D03*
X135128000Y-116586000D03*
X132588000Y-116586000D03*
X133858000Y-116586000D03*
X133096000Y-115570000D03*
X134620000Y-115570000D03*
X139446000Y-115570000D03*
X139954000Y-114554000D03*
X138684000Y-114554000D03*
X135128000Y-114554000D03*
X133858000Y-114554000D03*
X132588000Y-114554000D03*
D24*
X126492000Y-117856000D03*
D23*
X112268000Y-150368000D03*
X111506000Y-138684000D03*
X125476000Y-138684000D03*
X106426000Y-112522000D03*
X137160000Y-138684000D03*
X137414000Y-104140000D03*
X126492000Y-111252000D03*
M02*
