%TF.GenerationSoftware,KiCad,Pcbnew,7.0.5*%
%TF.CreationDate,2024-02-24T22:07:36+07:00*%
%TF.ProjectId,CN13_Case,434e3133-5f43-4617-9365-2e6b69636164,rev?*%
%TF.SameCoordinates,Original*%
%TF.FileFunction,Paste,Top*%
%TF.FilePolarity,Positive*%
%FSLAX46Y46*%
G04 Gerber Fmt 4.6, Leading zero omitted, Abs format (unit mm)*
G04 Created by KiCad (PCBNEW 7.0.5) date 2024-02-24 22:07:36*
%MOMM*%
%LPD*%
G01*
G04 APERTURE LIST*
G04 Aperture macros list*
%AMRoundRect*
0 Rectangle with rounded corners*
0 $1 Rounding radius*
0 $2 $3 $4 $5 $6 $7 $8 $9 X,Y pos of 4 corners*
0 Add a 4 corners polygon primitive as box body*
4,1,4,$2,$3,$4,$5,$6,$7,$8,$9,$2,$3,0*
0 Add four circle primitives for the rounded corners*
1,1,$1+$1,$2,$3*
1,1,$1+$1,$4,$5*
1,1,$1+$1,$6,$7*
1,1,$1+$1,$8,$9*
0 Add four rect primitives between the rounded corners*
20,1,$1+$1,$2,$3,$4,$5,0*
20,1,$1+$1,$4,$5,$6,$7,0*
20,1,$1+$1,$6,$7,$8,$9,0*
20,1,$1+$1,$8,$9,$2,$3,0*%
G04 Aperture macros list end*
%ADD10C,0.010000*%
%ADD11RoundRect,0.250000X-0.300000X2.050000X-0.300000X-2.050000X0.300000X-2.050000X0.300000X2.050000X0*%
%ADD12RoundRect,0.250000X-2.375000X2.025000X-2.375000X-2.025000X2.375000X-2.025000X2.375000X2.025000X0*%
%ADD13RoundRect,0.250000X-0.625000X0.400000X-0.625000X-0.400000X0.625000X-0.400000X0.625000X0.400000X0*%
%ADD14R,5.400000X2.900000*%
%ADD15R,3.600000X2.000000*%
%ADD16RoundRect,0.250001X0.624999X-0.462499X0.624999X0.462499X-0.624999X0.462499X-0.624999X-0.462499X0*%
%ADD17R,2.000000X3.600000*%
G04 APERTURE END LIST*
%TO.C,C3*%
D10*
X123932000Y-127640000D02*
X125032000Y-127640000D01*
X125032000Y-128940000D01*
X123932000Y-128940000D01*
X123932000Y-130140000D01*
X121432000Y-130140000D01*
X121432000Y-128940000D01*
X120332000Y-128940000D01*
X120332000Y-127640000D01*
X121432000Y-127640000D01*
X121432000Y-125740000D01*
X123932000Y-125740000D01*
X123932000Y-127640000D01*
G36*
X123932000Y-127640000D02*
G01*
X125032000Y-127640000D01*
X125032000Y-128940000D01*
X123932000Y-128940000D01*
X123932000Y-130140000D01*
X121432000Y-130140000D01*
X121432000Y-128940000D01*
X120332000Y-128940000D01*
X120332000Y-127640000D01*
X121432000Y-127640000D01*
X121432000Y-125740000D01*
X123932000Y-125740000D01*
X123932000Y-127640000D01*
G37*
X123932000Y-135240000D02*
X125032000Y-135240000D01*
X125032000Y-136540000D01*
X123932000Y-136540000D01*
X123932000Y-138440000D01*
X121432000Y-138440000D01*
X121432000Y-136540000D01*
X120332000Y-136540000D01*
X120332000Y-135240000D01*
X121432000Y-135240000D01*
X121432000Y-134040000D01*
X123932000Y-134040000D01*
X123932000Y-135240000D01*
G36*
X123932000Y-135240000D02*
G01*
X125032000Y-135240000D01*
X125032000Y-136540000D01*
X123932000Y-136540000D01*
X123932000Y-138440000D01*
X121432000Y-138440000D01*
X121432000Y-136540000D01*
X120332000Y-136540000D01*
X120332000Y-135240000D01*
X121432000Y-135240000D01*
X121432000Y-134040000D01*
X123932000Y-134040000D01*
X123932000Y-135240000D01*
G37*
%TO.C,C2*%
X109962000Y-135230000D02*
X111062000Y-135230000D01*
X111062000Y-136530000D01*
X109962000Y-136530000D01*
X109962000Y-138430000D01*
X107462000Y-138430000D01*
X107462000Y-136530000D01*
X106362000Y-136530000D01*
X106362000Y-135230000D01*
X107462000Y-135230000D01*
X107462000Y-134030000D01*
X109962000Y-134030000D01*
X109962000Y-135230000D01*
G36*
X109962000Y-135230000D02*
G01*
X111062000Y-135230000D01*
X111062000Y-136530000D01*
X109962000Y-136530000D01*
X109962000Y-138430000D01*
X107462000Y-138430000D01*
X107462000Y-136530000D01*
X106362000Y-136530000D01*
X106362000Y-135230000D01*
X107462000Y-135230000D01*
X107462000Y-134030000D01*
X109962000Y-134030000D01*
X109962000Y-135230000D01*
G37*
X109962000Y-127630000D02*
X111062000Y-127630000D01*
X111062000Y-128930000D01*
X109962000Y-128930000D01*
X109962000Y-130130000D01*
X107462000Y-130130000D01*
X107462000Y-128930000D01*
X106362000Y-128930000D01*
X106362000Y-127630000D01*
X107462000Y-127630000D01*
X107462000Y-125730000D01*
X109962000Y-125730000D01*
X109962000Y-127630000D01*
G36*
X109962000Y-127630000D02*
G01*
X111062000Y-127630000D01*
X111062000Y-128930000D01*
X109962000Y-128930000D01*
X109962000Y-130130000D01*
X107462000Y-130130000D01*
X107462000Y-128930000D01*
X106362000Y-128930000D01*
X106362000Y-127630000D01*
X107462000Y-127630000D01*
X107462000Y-125730000D01*
X109962000Y-125730000D01*
X109962000Y-127630000D01*
G37*
%TO.C,C1*%
X110978000Y-101722000D02*
X112078000Y-101722000D01*
X112078000Y-103022000D01*
X110978000Y-103022000D01*
X110978000Y-104222000D01*
X108478000Y-104222000D01*
X108478000Y-103022000D01*
X107378000Y-103022000D01*
X107378000Y-101722000D01*
X108478000Y-101722000D01*
X108478000Y-99822000D01*
X110978000Y-99822000D01*
X110978000Y-101722000D01*
G36*
X110978000Y-101722000D02*
G01*
X112078000Y-101722000D01*
X112078000Y-103022000D01*
X110978000Y-103022000D01*
X110978000Y-104222000D01*
X108478000Y-104222000D01*
X108478000Y-103022000D01*
X107378000Y-103022000D01*
X107378000Y-101722000D01*
X108478000Y-101722000D01*
X108478000Y-99822000D01*
X110978000Y-99822000D01*
X110978000Y-101722000D01*
G37*
X110978000Y-109322000D02*
X112078000Y-109322000D01*
X112078000Y-110622000D01*
X110978000Y-110622000D01*
X110978000Y-112522000D01*
X108478000Y-112522000D01*
X108478000Y-110622000D01*
X107378000Y-110622000D01*
X107378000Y-109322000D01*
X108478000Y-109322000D01*
X108478000Y-108122000D01*
X110978000Y-108122000D01*
X110978000Y-109322000D01*
G36*
X110978000Y-109322000D02*
G01*
X112078000Y-109322000D01*
X112078000Y-110622000D01*
X110978000Y-110622000D01*
X110978000Y-112522000D01*
X108478000Y-112522000D01*
X108478000Y-110622000D01*
X107378000Y-110622000D01*
X107378000Y-109322000D01*
X108478000Y-109322000D01*
X108478000Y-108122000D01*
X110978000Y-108122000D01*
X110978000Y-109322000D01*
G37*
%TD*%
D11*
%TO.C,U1*%
X139212000Y-107950000D03*
X137512000Y-107950000D03*
X135812000Y-107950000D03*
X134112000Y-107950000D03*
X132412000Y-107950000D03*
D12*
X133037000Y-119525000D03*
X138587000Y-114675000D03*
X138587000Y-119525000D03*
X133037000Y-114675000D03*
%TD*%
D13*
%TO.C,R2*%
X110062000Y-147182500D03*
X110062000Y-150282500D03*
%TD*%
D14*
%TO.C,L1*%
X137160000Y-135152000D03*
X137160000Y-125452000D03*
%TD*%
D15*
%TO.C,D3*%
X126492000Y-113694000D03*
X126492000Y-120494000D03*
%TD*%
D16*
%TO.C,D2*%
X110062000Y-144823500D03*
X110062000Y-141848500D03*
%TD*%
D17*
%TO.C,D1*%
X107090000Y-119126000D03*
X113890000Y-119126000D03*
%TD*%
M02*
