%TF.GenerationSoftware,KiCad,Pcbnew,7.0.5*%
%TF.CreationDate,2024-02-24T22:07:36+07:00*%
%TF.ProjectId,CN13_Case,434e3133-5f43-4617-9365-2e6b69636164,rev?*%
%TF.SameCoordinates,Original*%
%TF.FileFunction,Legend,Top*%
%TF.FilePolarity,Positive*%
%FSLAX46Y46*%
G04 Gerber Fmt 4.6, Leading zero omitted, Abs format (unit mm)*
G04 Created by KiCad (PCBNEW 7.0.5) date 2024-02-24 22:07:36*
%MOMM*%
%LPD*%
G01*
G04 APERTURE LIST*
G04 Aperture macros list*
%AMRoundRect*
0 Rectangle with rounded corners*
0 $1 Rounding radius*
0 $2 $3 $4 $5 $6 $7 $8 $9 X,Y pos of 4 corners*
0 Add a 4 corners polygon primitive as box body*
4,1,4,$2,$3,$4,$5,$6,$7,$8,$9,$2,$3,0*
0 Add four circle primitives for the rounded corners*
1,1,$1+$1,$2,$3*
1,1,$1+$1,$4,$5*
1,1,$1+$1,$6,$7*
1,1,$1+$1,$8,$9*
0 Add four rect primitives between the rounded corners*
20,1,$1+$1,$2,$3,$4,$5,0*
20,1,$1+$1,$4,$5,$6,$7,0*
20,1,$1+$1,$6,$7,$8,$9,0*
20,1,$1+$1,$8,$9,$2,$3,0*%
G04 Aperture macros list end*
%ADD10C,0.200000*%
%ADD11C,0.150000*%
%ADD12C,0.120000*%
%ADD13C,0.127000*%
%ADD14C,0.010000*%
%ADD15RoundRect,0.250000X-0.300000X2.050000X-0.300000X-2.050000X0.300000X-2.050000X0.300000X2.050000X0*%
%ADD16RoundRect,0.250002X-5.149998X4.449998X-5.149998X-4.449998X5.149998X-4.449998X5.149998X4.449998X0*%
%ADD17RoundRect,0.250000X-0.625000X0.400000X-0.625000X-0.400000X0.625000X-0.400000X0.625000X0.400000X0*%
%ADD18O,1.905000X2.000000*%
%ADD19R,1.905000X2.000000*%
%ADD20RoundRect,0.102000X2.700000X-1.450000X2.700000X1.450000X-2.700000X1.450000X-2.700000X-1.450000X0*%
%ADD21O,2.100000X3.600000*%
%ADD22RoundRect,0.250001X-0.799999X-1.549999X0.799999X-1.549999X0.799999X1.549999X-0.799999X1.549999X0*%
%ADD23C,3.200000*%
%ADD24RoundRect,0.102000X-1.800000X1.000000X-1.800000X-1.000000X1.800000X-1.000000X1.800000X1.000000X0*%
%ADD25RoundRect,0.250001X0.624999X-0.462499X0.624999X0.462499X-0.624999X0.462499X-0.624999X-0.462499X0*%
%ADD26RoundRect,0.102000X1.000000X1.800000X-1.000000X1.800000X-1.000000X-1.800000X1.000000X-1.800000X0*%
%ADD27C,0.800000*%
%ADD28C,0.700000*%
G04 APERTURE END LIST*
D10*
X114294266Y-147966326D02*
X114294266Y-147204422D01*
X114675219Y-147585374D02*
X113913314Y-147585374D01*
X113675219Y-146252041D02*
X113675219Y-146728231D01*
X113675219Y-146728231D02*
X114151409Y-146775850D01*
X114151409Y-146775850D02*
X114103790Y-146728231D01*
X114103790Y-146728231D02*
X114056171Y-146632993D01*
X114056171Y-146632993D02*
X114056171Y-146394898D01*
X114056171Y-146394898D02*
X114103790Y-146299660D01*
X114103790Y-146299660D02*
X114151409Y-146252041D01*
X114151409Y-146252041D02*
X114246647Y-146204422D01*
X114246647Y-146204422D02*
X114484742Y-146204422D01*
X114484742Y-146204422D02*
X114579980Y-146252041D01*
X114579980Y-146252041D02*
X114627600Y-146299660D01*
X114627600Y-146299660D02*
X114675219Y-146394898D01*
X114675219Y-146394898D02*
X114675219Y-146632993D01*
X114675219Y-146632993D02*
X114627600Y-146728231D01*
X114627600Y-146728231D02*
X114579980Y-146775850D01*
X113675219Y-145918707D02*
X114675219Y-145585374D01*
X114675219Y-145585374D02*
X113675219Y-145252041D01*
X131756838Y-146934517D02*
X131709219Y-147029755D01*
X131709219Y-147029755D02*
X131709219Y-147172612D01*
X131709219Y-147172612D02*
X131756838Y-147315469D01*
X131756838Y-147315469D02*
X131852076Y-147410707D01*
X131852076Y-147410707D02*
X131947314Y-147458326D01*
X131947314Y-147458326D02*
X132137790Y-147505945D01*
X132137790Y-147505945D02*
X132280647Y-147505945D01*
X132280647Y-147505945D02*
X132471123Y-147458326D01*
X132471123Y-147458326D02*
X132566361Y-147410707D01*
X132566361Y-147410707D02*
X132661600Y-147315469D01*
X132661600Y-147315469D02*
X132709219Y-147172612D01*
X132709219Y-147172612D02*
X132709219Y-147077374D01*
X132709219Y-147077374D02*
X132661600Y-146934517D01*
X132661600Y-146934517D02*
X132613980Y-146886898D01*
X132613980Y-146886898D02*
X132280647Y-146886898D01*
X132280647Y-146886898D02*
X132280647Y-147077374D01*
X132709219Y-146458326D02*
X131709219Y-146458326D01*
X131709219Y-146458326D02*
X132709219Y-145886898D01*
X132709219Y-145886898D02*
X131709219Y-145886898D01*
X132709219Y-145410707D02*
X131709219Y-145410707D01*
X131709219Y-145410707D02*
X131709219Y-145172612D01*
X131709219Y-145172612D02*
X131756838Y-145029755D01*
X131756838Y-145029755D02*
X131852076Y-144934517D01*
X131852076Y-144934517D02*
X131947314Y-144886898D01*
X131947314Y-144886898D02*
X132137790Y-144839279D01*
X132137790Y-144839279D02*
X132280647Y-144839279D01*
X132280647Y-144839279D02*
X132471123Y-144886898D01*
X132471123Y-144886898D02*
X132566361Y-144934517D01*
X132566361Y-144934517D02*
X132661600Y-145029755D01*
X132661600Y-145029755D02*
X132709219Y-145172612D01*
X132709219Y-145172612D02*
X132709219Y-145410707D01*
X131756838Y-95118517D02*
X131709219Y-95213755D01*
X131709219Y-95213755D02*
X131709219Y-95356612D01*
X131709219Y-95356612D02*
X131756838Y-95499469D01*
X131756838Y-95499469D02*
X131852076Y-95594707D01*
X131852076Y-95594707D02*
X131947314Y-95642326D01*
X131947314Y-95642326D02*
X132137790Y-95689945D01*
X132137790Y-95689945D02*
X132280647Y-95689945D01*
X132280647Y-95689945D02*
X132471123Y-95642326D01*
X132471123Y-95642326D02*
X132566361Y-95594707D01*
X132566361Y-95594707D02*
X132661600Y-95499469D01*
X132661600Y-95499469D02*
X132709219Y-95356612D01*
X132709219Y-95356612D02*
X132709219Y-95261374D01*
X132709219Y-95261374D02*
X132661600Y-95118517D01*
X132661600Y-95118517D02*
X132613980Y-95070898D01*
X132613980Y-95070898D02*
X132280647Y-95070898D01*
X132280647Y-95070898D02*
X132280647Y-95261374D01*
X132709219Y-94642326D02*
X131709219Y-94642326D01*
X131709219Y-94642326D02*
X132709219Y-94070898D01*
X132709219Y-94070898D02*
X131709219Y-94070898D01*
X132709219Y-93594707D02*
X131709219Y-93594707D01*
X131709219Y-93594707D02*
X131709219Y-93356612D01*
X131709219Y-93356612D02*
X131756838Y-93213755D01*
X131756838Y-93213755D02*
X131852076Y-93118517D01*
X131852076Y-93118517D02*
X131947314Y-93070898D01*
X131947314Y-93070898D02*
X132137790Y-93023279D01*
X132137790Y-93023279D02*
X132280647Y-93023279D01*
X132280647Y-93023279D02*
X132471123Y-93070898D01*
X132471123Y-93070898D02*
X132566361Y-93118517D01*
X132566361Y-93118517D02*
X132661600Y-93213755D01*
X132661600Y-93213755D02*
X132709219Y-93356612D01*
X132709219Y-93356612D02*
X132709219Y-93594707D01*
X114294266Y-95642326D02*
X114294266Y-94880422D01*
X114675219Y-95261374D02*
X113913314Y-95261374D01*
X114675219Y-93880422D02*
X114675219Y-94451850D01*
X114675219Y-94166136D02*
X113675219Y-94166136D01*
X113675219Y-94166136D02*
X113818076Y-94261374D01*
X113818076Y-94261374D02*
X113913314Y-94356612D01*
X113913314Y-94356612D02*
X113960933Y-94451850D01*
X113770457Y-93499469D02*
X113722838Y-93451850D01*
X113722838Y-93451850D02*
X113675219Y-93356612D01*
X113675219Y-93356612D02*
X113675219Y-93118517D01*
X113675219Y-93118517D02*
X113722838Y-93023279D01*
X113722838Y-93023279D02*
X113770457Y-92975660D01*
X113770457Y-92975660D02*
X113865695Y-92928041D01*
X113865695Y-92928041D02*
X113960933Y-92928041D01*
X113960933Y-92928041D02*
X114103790Y-92975660D01*
X114103790Y-92975660D02*
X114675219Y-93547088D01*
X114675219Y-93547088D02*
X114675219Y-92928041D01*
X113675219Y-92642326D02*
X114675219Y-92308993D01*
X114675219Y-92308993D02*
X113675219Y-91975660D01*
X104986028Y-149085564D02*
X104986028Y-148799850D01*
X104986028Y-148799850D02*
X105057457Y-148656993D01*
X105057457Y-148656993D02*
X105200314Y-148514136D01*
X105200314Y-148514136D02*
X105486028Y-148442707D01*
X105486028Y-148442707D02*
X105986028Y-148442707D01*
X105986028Y-148442707D02*
X106271742Y-148514136D01*
X106271742Y-148514136D02*
X106414600Y-148656993D01*
X106414600Y-148656993D02*
X106486028Y-148799850D01*
X106486028Y-148799850D02*
X106486028Y-149085564D01*
X106486028Y-149085564D02*
X106414600Y-149228422D01*
X106414600Y-149228422D02*
X106271742Y-149371279D01*
X106271742Y-149371279D02*
X105986028Y-149442707D01*
X105986028Y-149442707D02*
X105486028Y-149442707D01*
X105486028Y-149442707D02*
X105200314Y-149371279D01*
X105200314Y-149371279D02*
X105057457Y-149228422D01*
X105057457Y-149228422D02*
X104986028Y-149085564D01*
X104986028Y-147799850D02*
X106200314Y-147799850D01*
X106200314Y-147799850D02*
X106343171Y-147728421D01*
X106343171Y-147728421D02*
X106414600Y-147656993D01*
X106414600Y-147656993D02*
X106486028Y-147514135D01*
X106486028Y-147514135D02*
X106486028Y-147228421D01*
X106486028Y-147228421D02*
X106414600Y-147085564D01*
X106414600Y-147085564D02*
X106343171Y-147014135D01*
X106343171Y-147014135D02*
X106200314Y-146942707D01*
X106200314Y-146942707D02*
X104986028Y-146942707D01*
X104986028Y-146442706D02*
X104986028Y-145585564D01*
X106486028Y-146014135D02*
X104986028Y-146014135D01*
X106486028Y-145085564D02*
X104986028Y-145085564D01*
X104986028Y-145085564D02*
X104986028Y-144514135D01*
X104986028Y-144514135D02*
X105057457Y-144371278D01*
X105057457Y-144371278D02*
X105128885Y-144299849D01*
X105128885Y-144299849D02*
X105271742Y-144228421D01*
X105271742Y-144228421D02*
X105486028Y-144228421D01*
X105486028Y-144228421D02*
X105628885Y-144299849D01*
X105628885Y-144299849D02*
X105700314Y-144371278D01*
X105700314Y-144371278D02*
X105771742Y-144514135D01*
X105771742Y-144514135D02*
X105771742Y-145085564D01*
X104986028Y-143585564D02*
X106200314Y-143585564D01*
X106200314Y-143585564D02*
X106343171Y-143514135D01*
X106343171Y-143514135D02*
X106414600Y-143442707D01*
X106414600Y-143442707D02*
X106486028Y-143299849D01*
X106486028Y-143299849D02*
X106486028Y-143014135D01*
X106486028Y-143014135D02*
X106414600Y-142871278D01*
X106414600Y-142871278D02*
X106343171Y-142799849D01*
X106343171Y-142799849D02*
X106200314Y-142728421D01*
X106200314Y-142728421D02*
X104986028Y-142728421D01*
X104986028Y-142228420D02*
X104986028Y-141371278D01*
X106486028Y-141799849D02*
X104986028Y-141799849D01*
X107756028Y-96285279D02*
X106256028Y-96285279D01*
X107756028Y-95570993D02*
X106256028Y-95570993D01*
X106256028Y-95570993D02*
X107756028Y-94713850D01*
X107756028Y-94713850D02*
X106256028Y-94713850D01*
X107756028Y-93999564D02*
X106256028Y-93999564D01*
X106256028Y-93999564D02*
X106256028Y-93428135D01*
X106256028Y-93428135D02*
X106327457Y-93285278D01*
X106327457Y-93285278D02*
X106398885Y-93213849D01*
X106398885Y-93213849D02*
X106541742Y-93142421D01*
X106541742Y-93142421D02*
X106756028Y-93142421D01*
X106756028Y-93142421D02*
X106898885Y-93213849D01*
X106898885Y-93213849D02*
X106970314Y-93285278D01*
X106970314Y-93285278D02*
X107041742Y-93428135D01*
X107041742Y-93428135D02*
X107041742Y-93999564D01*
X106256028Y-92499564D02*
X107470314Y-92499564D01*
X107470314Y-92499564D02*
X107613171Y-92428135D01*
X107613171Y-92428135D02*
X107684600Y-92356707D01*
X107684600Y-92356707D02*
X107756028Y-92213849D01*
X107756028Y-92213849D02*
X107756028Y-91928135D01*
X107756028Y-91928135D02*
X107684600Y-91785278D01*
X107684600Y-91785278D02*
X107613171Y-91713849D01*
X107613171Y-91713849D02*
X107470314Y-91642421D01*
X107470314Y-91642421D02*
X106256028Y-91642421D01*
X106256028Y-91142420D02*
X106256028Y-90285278D01*
X107756028Y-90713849D02*
X106256028Y-90713849D01*
D11*
%TO.C,U1*%
X141916819Y-116361904D02*
X142726342Y-116361904D01*
X142726342Y-116361904D02*
X142821580Y-116314285D01*
X142821580Y-116314285D02*
X142869200Y-116266666D01*
X142869200Y-116266666D02*
X142916819Y-116171428D01*
X142916819Y-116171428D02*
X142916819Y-115980952D01*
X142916819Y-115980952D02*
X142869200Y-115885714D01*
X142869200Y-115885714D02*
X142821580Y-115838095D01*
X142821580Y-115838095D02*
X142726342Y-115790476D01*
X142726342Y-115790476D02*
X141916819Y-115790476D01*
X142916819Y-114790476D02*
X142916819Y-115361904D01*
X142916819Y-115076190D02*
X141916819Y-115076190D01*
X141916819Y-115076190D02*
X142059676Y-115171428D01*
X142059676Y-115171428D02*
X142154914Y-115266666D01*
X142154914Y-115266666D02*
X142202533Y-115361904D01*
%TO.C,R2*%
X108404819Y-148502666D02*
X107928628Y-148835999D01*
X108404819Y-149074094D02*
X107404819Y-149074094D01*
X107404819Y-149074094D02*
X107404819Y-148693142D01*
X107404819Y-148693142D02*
X107452438Y-148597904D01*
X107452438Y-148597904D02*
X107500057Y-148550285D01*
X107500057Y-148550285D02*
X107595295Y-148502666D01*
X107595295Y-148502666D02*
X107738152Y-148502666D01*
X107738152Y-148502666D02*
X107833390Y-148550285D01*
X107833390Y-148550285D02*
X107881009Y-148597904D01*
X107881009Y-148597904D02*
X107928628Y-148693142D01*
X107928628Y-148693142D02*
X107928628Y-149074094D01*
X107500057Y-148121713D02*
X107452438Y-148074094D01*
X107452438Y-148074094D02*
X107404819Y-147978856D01*
X107404819Y-147978856D02*
X107404819Y-147740761D01*
X107404819Y-147740761D02*
X107452438Y-147645523D01*
X107452438Y-147645523D02*
X107500057Y-147597904D01*
X107500057Y-147597904D02*
X107595295Y-147550285D01*
X107595295Y-147550285D02*
X107690533Y-147550285D01*
X107690533Y-147550285D02*
X107833390Y-147597904D01*
X107833390Y-147597904D02*
X108404819Y-148169332D01*
X108404819Y-148169332D02*
X108404819Y-147550285D01*
%TO.C,Q1*%
X128682761Y-103420057D02*
X128587523Y-103372438D01*
X128587523Y-103372438D02*
X128492285Y-103277200D01*
X128492285Y-103277200D02*
X128349428Y-103134342D01*
X128349428Y-103134342D02*
X128254190Y-103086723D01*
X128254190Y-103086723D02*
X128158952Y-103086723D01*
X128206571Y-103324819D02*
X128111333Y-103277200D01*
X128111333Y-103277200D02*
X128016095Y-103181961D01*
X128016095Y-103181961D02*
X127968476Y-102991485D01*
X127968476Y-102991485D02*
X127968476Y-102658152D01*
X127968476Y-102658152D02*
X128016095Y-102467676D01*
X128016095Y-102467676D02*
X128111333Y-102372438D01*
X128111333Y-102372438D02*
X128206571Y-102324819D01*
X128206571Y-102324819D02*
X128397047Y-102324819D01*
X128397047Y-102324819D02*
X128492285Y-102372438D01*
X128492285Y-102372438D02*
X128587523Y-102467676D01*
X128587523Y-102467676D02*
X128635142Y-102658152D01*
X128635142Y-102658152D02*
X128635142Y-102991485D01*
X128635142Y-102991485D02*
X128587523Y-103181961D01*
X128587523Y-103181961D02*
X128492285Y-103277200D01*
X128492285Y-103277200D02*
X128397047Y-103324819D01*
X128397047Y-103324819D02*
X128206571Y-103324819D01*
X129587523Y-103324819D02*
X129016095Y-103324819D01*
X129301809Y-103324819D02*
X129301809Y-102324819D01*
X129301809Y-102324819D02*
X129206571Y-102467676D01*
X129206571Y-102467676D02*
X129111333Y-102562914D01*
X129111333Y-102562914D02*
X129016095Y-102610533D01*
%TO.C,L1*%
X130249675Y-130468974D02*
X130249675Y-130946046D01*
X130249675Y-130946046D02*
X129247825Y-130946046D01*
X130249675Y-129610246D02*
X130249675Y-130182732D01*
X130249675Y-129896489D02*
X129247825Y-129896489D01*
X129247825Y-129896489D02*
X129390946Y-129991903D01*
X129390946Y-129991903D02*
X129486360Y-130087318D01*
X129486360Y-130087318D02*
X129534068Y-130182732D01*
%TO.C,D3*%
X122882819Y-117676094D02*
X121882819Y-117676094D01*
X121882819Y-117676094D02*
X121882819Y-117437999D01*
X121882819Y-117437999D02*
X121930438Y-117295142D01*
X121930438Y-117295142D02*
X122025676Y-117199904D01*
X122025676Y-117199904D02*
X122120914Y-117152285D01*
X122120914Y-117152285D02*
X122311390Y-117104666D01*
X122311390Y-117104666D02*
X122454247Y-117104666D01*
X122454247Y-117104666D02*
X122644723Y-117152285D01*
X122644723Y-117152285D02*
X122739961Y-117199904D01*
X122739961Y-117199904D02*
X122835200Y-117295142D01*
X122835200Y-117295142D02*
X122882819Y-117437999D01*
X122882819Y-117437999D02*
X122882819Y-117676094D01*
X121882819Y-116771332D02*
X121882819Y-116152285D01*
X121882819Y-116152285D02*
X122263771Y-116485618D01*
X122263771Y-116485618D02*
X122263771Y-116342761D01*
X122263771Y-116342761D02*
X122311390Y-116247523D01*
X122311390Y-116247523D02*
X122359009Y-116199904D01*
X122359009Y-116199904D02*
X122454247Y-116152285D01*
X122454247Y-116152285D02*
X122692342Y-116152285D01*
X122692342Y-116152285D02*
X122787580Y-116199904D01*
X122787580Y-116199904D02*
X122835200Y-116247523D01*
X122835200Y-116247523D02*
X122882819Y-116342761D01*
X122882819Y-116342761D02*
X122882819Y-116628475D01*
X122882819Y-116628475D02*
X122835200Y-116723713D01*
X122835200Y-116723713D02*
X122787580Y-116771332D01*
%TO.C,D2*%
X108404819Y-144074094D02*
X107404819Y-144074094D01*
X107404819Y-144074094D02*
X107404819Y-143835999D01*
X107404819Y-143835999D02*
X107452438Y-143693142D01*
X107452438Y-143693142D02*
X107547676Y-143597904D01*
X107547676Y-143597904D02*
X107642914Y-143550285D01*
X107642914Y-143550285D02*
X107833390Y-143502666D01*
X107833390Y-143502666D02*
X107976247Y-143502666D01*
X107976247Y-143502666D02*
X108166723Y-143550285D01*
X108166723Y-143550285D02*
X108261961Y-143597904D01*
X108261961Y-143597904D02*
X108357200Y-143693142D01*
X108357200Y-143693142D02*
X108404819Y-143835999D01*
X108404819Y-143835999D02*
X108404819Y-144074094D01*
X107500057Y-143121713D02*
X107452438Y-143074094D01*
X107452438Y-143074094D02*
X107404819Y-142978856D01*
X107404819Y-142978856D02*
X107404819Y-142740761D01*
X107404819Y-142740761D02*
X107452438Y-142645523D01*
X107452438Y-142645523D02*
X107500057Y-142597904D01*
X107500057Y-142597904D02*
X107595295Y-142550285D01*
X107595295Y-142550285D02*
X107690533Y-142550285D01*
X107690533Y-142550285D02*
X107833390Y-142597904D01*
X107833390Y-142597904D02*
X108404819Y-143169332D01*
X108404819Y-143169332D02*
X108404819Y-142550285D01*
%TO.C,D1*%
X109751905Y-123644819D02*
X109751905Y-122644819D01*
X109751905Y-122644819D02*
X109990000Y-122644819D01*
X109990000Y-122644819D02*
X110132857Y-122692438D01*
X110132857Y-122692438D02*
X110228095Y-122787676D01*
X110228095Y-122787676D02*
X110275714Y-122882914D01*
X110275714Y-122882914D02*
X110323333Y-123073390D01*
X110323333Y-123073390D02*
X110323333Y-123216247D01*
X110323333Y-123216247D02*
X110275714Y-123406723D01*
X110275714Y-123406723D02*
X110228095Y-123501961D01*
X110228095Y-123501961D02*
X110132857Y-123597200D01*
X110132857Y-123597200D02*
X109990000Y-123644819D01*
X109990000Y-123644819D02*
X109751905Y-123644819D01*
X111275714Y-123644819D02*
X110704286Y-123644819D01*
X110990000Y-123644819D02*
X110990000Y-122644819D01*
X110990000Y-122644819D02*
X110894762Y-122787676D01*
X110894762Y-122787676D02*
X110799524Y-122882914D01*
X110799524Y-122882914D02*
X110704286Y-122930533D01*
%TO.C,C3*%
X129576580Y-131881666D02*
X129624200Y-131929285D01*
X129624200Y-131929285D02*
X129671819Y-132072142D01*
X129671819Y-132072142D02*
X129671819Y-132167380D01*
X129671819Y-132167380D02*
X129624200Y-132310237D01*
X129624200Y-132310237D02*
X129528961Y-132405475D01*
X129528961Y-132405475D02*
X129433723Y-132453094D01*
X129433723Y-132453094D02*
X129243247Y-132500713D01*
X129243247Y-132500713D02*
X129100390Y-132500713D01*
X129100390Y-132500713D02*
X128909914Y-132453094D01*
X128909914Y-132453094D02*
X128814676Y-132405475D01*
X128814676Y-132405475D02*
X128719438Y-132310237D01*
X128719438Y-132310237D02*
X128671819Y-132167380D01*
X128671819Y-132167380D02*
X128671819Y-132072142D01*
X128671819Y-132072142D02*
X128719438Y-131929285D01*
X128719438Y-131929285D02*
X128767057Y-131881666D01*
X128671819Y-131548332D02*
X128671819Y-130929285D01*
X128671819Y-130929285D02*
X129052771Y-131262618D01*
X129052771Y-131262618D02*
X129052771Y-131119761D01*
X129052771Y-131119761D02*
X129100390Y-131024523D01*
X129100390Y-131024523D02*
X129148009Y-130976904D01*
X129148009Y-130976904D02*
X129243247Y-130929285D01*
X129243247Y-130929285D02*
X129481342Y-130929285D01*
X129481342Y-130929285D02*
X129576580Y-130976904D01*
X129576580Y-130976904D02*
X129624200Y-131024523D01*
X129624200Y-131024523D02*
X129671819Y-131119761D01*
X129671819Y-131119761D02*
X129671819Y-131405475D01*
X129671819Y-131405475D02*
X129624200Y-131500713D01*
X129624200Y-131500713D02*
X129576580Y-131548332D01*
%TO.C,C2*%
X115606580Y-131871666D02*
X115654200Y-131919285D01*
X115654200Y-131919285D02*
X115701819Y-132062142D01*
X115701819Y-132062142D02*
X115701819Y-132157380D01*
X115701819Y-132157380D02*
X115654200Y-132300237D01*
X115654200Y-132300237D02*
X115558961Y-132395475D01*
X115558961Y-132395475D02*
X115463723Y-132443094D01*
X115463723Y-132443094D02*
X115273247Y-132490713D01*
X115273247Y-132490713D02*
X115130390Y-132490713D01*
X115130390Y-132490713D02*
X114939914Y-132443094D01*
X114939914Y-132443094D02*
X114844676Y-132395475D01*
X114844676Y-132395475D02*
X114749438Y-132300237D01*
X114749438Y-132300237D02*
X114701819Y-132157380D01*
X114701819Y-132157380D02*
X114701819Y-132062142D01*
X114701819Y-132062142D02*
X114749438Y-131919285D01*
X114749438Y-131919285D02*
X114797057Y-131871666D01*
X114797057Y-131490713D02*
X114749438Y-131443094D01*
X114749438Y-131443094D02*
X114701819Y-131347856D01*
X114701819Y-131347856D02*
X114701819Y-131109761D01*
X114701819Y-131109761D02*
X114749438Y-131014523D01*
X114749438Y-131014523D02*
X114797057Y-130966904D01*
X114797057Y-130966904D02*
X114892295Y-130919285D01*
X114892295Y-130919285D02*
X114987533Y-130919285D01*
X114987533Y-130919285D02*
X115130390Y-130966904D01*
X115130390Y-130966904D02*
X115701819Y-131538332D01*
X115701819Y-131538332D02*
X115701819Y-130919285D01*
%TO.C,C1*%
X103991580Y-106338666D02*
X104039200Y-106386285D01*
X104039200Y-106386285D02*
X104086819Y-106529142D01*
X104086819Y-106529142D02*
X104086819Y-106624380D01*
X104086819Y-106624380D02*
X104039200Y-106767237D01*
X104039200Y-106767237D02*
X103943961Y-106862475D01*
X103943961Y-106862475D02*
X103848723Y-106910094D01*
X103848723Y-106910094D02*
X103658247Y-106957713D01*
X103658247Y-106957713D02*
X103515390Y-106957713D01*
X103515390Y-106957713D02*
X103324914Y-106910094D01*
X103324914Y-106910094D02*
X103229676Y-106862475D01*
X103229676Y-106862475D02*
X103134438Y-106767237D01*
X103134438Y-106767237D02*
X103086819Y-106624380D01*
X103086819Y-106624380D02*
X103086819Y-106529142D01*
X103086819Y-106529142D02*
X103134438Y-106386285D01*
X103134438Y-106386285D02*
X103182057Y-106338666D01*
X104086819Y-105386285D02*
X104086819Y-105957713D01*
X104086819Y-105671999D02*
X103086819Y-105671999D01*
X103086819Y-105671999D02*
X103229676Y-105767237D01*
X103229676Y-105767237D02*
X103324914Y-105862475D01*
X103324914Y-105862475D02*
X103372533Y-105957713D01*
D12*
%TO.C,U1*%
X141012000Y-112275000D02*
X141012000Y-110775000D01*
X141012000Y-110775000D02*
X140062000Y-110775000D01*
X140062000Y-110775000D02*
X140062000Y-105650000D01*
X130612000Y-112275000D02*
X130612000Y-110775000D01*
X130612000Y-110775000D02*
X131562000Y-110775000D01*
X131562000Y-110775000D02*
X131562000Y-109675000D01*
%TO.C,R2*%
X110972000Y-148005436D02*
X110972000Y-149459564D01*
X109152000Y-148005436D02*
X109152000Y-149459564D01*
%TO.C,Q1*%
X117308000Y-101872000D02*
X127548000Y-101872000D01*
X127548000Y-100362000D02*
X127548000Y-105003000D01*
X117308000Y-105003000D02*
X127548000Y-105003000D01*
X117308000Y-100362000D02*
X117308000Y-105003000D01*
X124279000Y-100362000D02*
X124279000Y-101872000D01*
X120578000Y-100362000D02*
X120578000Y-101872000D01*
X117308000Y-100362000D02*
X127548000Y-100362000D01*
D13*
%TO.C,L1*%
X130910000Y-136552000D02*
X134110000Y-136552000D01*
X130910000Y-136552000D02*
X130910000Y-124052000D01*
X140210000Y-136552000D02*
X143410000Y-136552000D01*
X143410000Y-136552000D02*
X143410000Y-124052000D01*
X130910000Y-124052000D02*
X134110000Y-124052000D01*
X140210000Y-124052000D02*
X143410000Y-124052000D01*
D12*
%TO.C,J2*%
X125000000Y-148504000D02*
G75*
G03*
X128986842Y-148519821I2000000J1650000D01*
G01*
X117380000Y-148504000D02*
G75*
G03*
X121366842Y-148519821I2000000J1650000D01*
G01*
X130920000Y-142204000D02*
X128110000Y-142204000D01*
X128000000Y-141394000D02*
X128000000Y-143204000D01*
X119080000Y-140594000D02*
X119680000Y-140594000D01*
X120380000Y-141394000D02*
X120380000Y-143204000D01*
X130920000Y-150214000D02*
X130920000Y-141394000D01*
X121380000Y-148504000D02*
X125000000Y-148504000D01*
X126000000Y-143204000D02*
X126000000Y-141394000D01*
X130010000Y-143204000D02*
X130010000Y-148504000D01*
X118380000Y-141394000D02*
X120380000Y-141394000D01*
X117380000Y-148504000D02*
X116370000Y-148504000D01*
X120380000Y-142204000D02*
X126000000Y-142204000D01*
X115460000Y-141394000D02*
X115460000Y-150214000D01*
X115460000Y-142204000D02*
X118270000Y-142204000D01*
X130010000Y-148504000D02*
X129000000Y-148504000D01*
X116370000Y-143204000D02*
X130010000Y-143204000D01*
X119680000Y-140594000D02*
X119380000Y-141194000D01*
X120380000Y-143204000D02*
X118380000Y-143204000D01*
X130920000Y-141394000D02*
X115460000Y-141394000D01*
X128000000Y-143204000D02*
X126000000Y-143204000D01*
X115460000Y-150214000D02*
X130920000Y-150214000D01*
X116370000Y-148504000D02*
X116370000Y-143204000D01*
X126000000Y-141394000D02*
X128000000Y-141394000D01*
X118380000Y-143204000D02*
X118380000Y-141394000D01*
X119380000Y-141194000D02*
X119080000Y-140594000D01*
%TO.C,J1*%
X119380000Y-89886000D02*
X119080000Y-89286000D01*
X118380000Y-91896000D02*
X118380000Y-90086000D01*
X126000000Y-90086000D02*
X128000000Y-90086000D01*
X116370000Y-97196000D02*
X116370000Y-91896000D01*
X115460000Y-98906000D02*
X130920000Y-98906000D01*
X128000000Y-91896000D02*
X126000000Y-91896000D01*
X130920000Y-90086000D02*
X115460000Y-90086000D01*
X120380000Y-91896000D02*
X118380000Y-91896000D01*
X119680000Y-89286000D02*
X119380000Y-89886000D01*
X116370000Y-91896000D02*
X130010000Y-91896000D01*
X130010000Y-97196000D02*
X129000000Y-97196000D01*
X115460000Y-90896000D02*
X118270000Y-90896000D01*
X115460000Y-90086000D02*
X115460000Y-98906000D01*
X120380000Y-90896000D02*
X126000000Y-90896000D01*
X117380000Y-97196000D02*
X116370000Y-97196000D01*
X118380000Y-90086000D02*
X120380000Y-90086000D01*
X130010000Y-91896000D02*
X130010000Y-97196000D01*
X126000000Y-91896000D02*
X126000000Y-90086000D01*
X121380000Y-97196000D02*
X125000000Y-97196000D01*
X130920000Y-98906000D02*
X130920000Y-90086000D01*
X120380000Y-90086000D02*
X120380000Y-91896000D01*
X119080000Y-89286000D02*
X119680000Y-89286000D01*
X128000000Y-90086000D02*
X128000000Y-91896000D01*
X130920000Y-90896000D02*
X128110000Y-90896000D01*
X117380000Y-97196000D02*
G75*
G03*
X121366842Y-97211821I2000000J1650000D01*
G01*
X125000000Y-97196000D02*
G75*
G03*
X128986842Y-97211821I2000000J1650000D01*
G01*
D10*
%TO.C,D3*%
X126592000Y-112094000D02*
G75*
G03*
X126592000Y-112094000I-100000J0D01*
G01*
D13*
X123542000Y-120531500D02*
X124192000Y-120531500D01*
X128792000Y-120531500D02*
X129442000Y-120531500D01*
X129442000Y-120531500D02*
X129442000Y-113656500D01*
X123542000Y-113656500D02*
X123542000Y-120531500D01*
X123542000Y-113656500D02*
X124192000Y-113656500D01*
X129442000Y-113656500D02*
X128792000Y-113656500D01*
D12*
%TO.C,D2*%
X111197000Y-145796000D02*
X111197000Y-141736000D01*
X108927000Y-145796000D02*
X111197000Y-145796000D01*
X108927000Y-141736000D02*
X108927000Y-145796000D01*
D13*
%TO.C,D1*%
X113927500Y-122076000D02*
X113927500Y-121426000D01*
X113927500Y-116176000D02*
X113927500Y-116826000D01*
X113927500Y-116176000D02*
X107052500Y-116176000D01*
X107052500Y-122076000D02*
X113927500Y-122076000D01*
X107052500Y-121426000D02*
X107052500Y-122076000D01*
X107052500Y-116176000D02*
X107052500Y-116826000D01*
D10*
X115590000Y-119126000D02*
G75*
G03*
X115590000Y-119126000I-100000J0D01*
G01*
D13*
%TO.C,C3*%
X126032000Y-126940000D02*
X124252000Y-126940000D01*
X121112000Y-126940000D02*
X119332000Y-126940000D01*
X119332000Y-126940000D02*
X117532000Y-128740000D01*
X127832000Y-128740000D02*
X126032000Y-126940000D01*
X117532000Y-128740000D02*
X117532000Y-137240000D01*
X127832000Y-137240000D02*
X127832000Y-128740000D01*
X124252000Y-137240000D02*
X127832000Y-137240000D01*
X117532000Y-137240000D02*
X121112000Y-137240000D01*
D10*
X124882000Y-125790000D02*
G75*
G03*
X124882000Y-125790000I-100000J0D01*
G01*
%TO.C,C2*%
X110912000Y-125780000D02*
G75*
G03*
X110912000Y-125780000I-100000J0D01*
G01*
D13*
X103562000Y-137230000D02*
X107142000Y-137230000D01*
X110282000Y-137230000D02*
X113862000Y-137230000D01*
X113862000Y-137230000D02*
X113862000Y-128730000D01*
X103562000Y-128730000D02*
X103562000Y-137230000D01*
X113862000Y-128730000D02*
X112062000Y-126930000D01*
X105362000Y-126930000D02*
X103562000Y-128730000D01*
X107142000Y-126930000D02*
X105362000Y-126930000D01*
X112062000Y-126930000D02*
X110282000Y-126930000D01*
%TO.C,C1*%
X113078000Y-101022000D02*
X111298000Y-101022000D01*
X108158000Y-101022000D02*
X106378000Y-101022000D01*
X106378000Y-101022000D02*
X104578000Y-102822000D01*
X114878000Y-102822000D02*
X113078000Y-101022000D01*
X104578000Y-102822000D02*
X104578000Y-111322000D01*
X114878000Y-111322000D02*
X114878000Y-102822000D01*
X111298000Y-111322000D02*
X114878000Y-111322000D01*
X104578000Y-111322000D02*
X108158000Y-111322000D01*
D10*
X111928000Y-99872000D02*
G75*
G03*
X111928000Y-99872000I-100000J0D01*
G01*
%TD*%
%LPC*%
%TO.C,C3*%
D14*
X124032000Y-127540000D02*
X125132000Y-127540000D01*
X125132000Y-129040000D01*
X124032000Y-129040000D01*
X124032000Y-130240000D01*
X121332000Y-130240000D01*
X121332000Y-129040000D01*
X120232000Y-129040000D01*
X120232000Y-127540000D01*
X121332000Y-127540000D01*
X121332000Y-125640000D01*
X124032000Y-125640000D01*
X124032000Y-127540000D01*
G36*
X124032000Y-127540000D02*
G01*
X125132000Y-127540000D01*
X125132000Y-129040000D01*
X124032000Y-129040000D01*
X124032000Y-130240000D01*
X121332000Y-130240000D01*
X121332000Y-129040000D01*
X120232000Y-129040000D01*
X120232000Y-127540000D01*
X121332000Y-127540000D01*
X121332000Y-125640000D01*
X124032000Y-125640000D01*
X124032000Y-127540000D01*
G37*
X124032000Y-135140000D02*
X125132000Y-135140000D01*
X125132000Y-136640000D01*
X124032000Y-136640000D01*
X124032000Y-138540000D01*
X121332000Y-138540000D01*
X121332000Y-136640000D01*
X120232000Y-136640000D01*
X120232000Y-135140000D01*
X121332000Y-135140000D01*
X121332000Y-133940000D01*
X124032000Y-133940000D01*
X124032000Y-135140000D01*
G36*
X124032000Y-135140000D02*
G01*
X125132000Y-135140000D01*
X125132000Y-136640000D01*
X124032000Y-136640000D01*
X124032000Y-138540000D01*
X121332000Y-138540000D01*
X121332000Y-136640000D01*
X120232000Y-136640000D01*
X120232000Y-135140000D01*
X121332000Y-135140000D01*
X121332000Y-133940000D01*
X124032000Y-133940000D01*
X124032000Y-135140000D01*
G37*
%TO.C,C2*%
X110062000Y-135130000D02*
X111162000Y-135130000D01*
X111162000Y-136630000D01*
X110062000Y-136630000D01*
X110062000Y-138530000D01*
X107362000Y-138530000D01*
X107362000Y-136630000D01*
X106262000Y-136630000D01*
X106262000Y-135130000D01*
X107362000Y-135130000D01*
X107362000Y-133930000D01*
X110062000Y-133930000D01*
X110062000Y-135130000D01*
G36*
X110062000Y-135130000D02*
G01*
X111162000Y-135130000D01*
X111162000Y-136630000D01*
X110062000Y-136630000D01*
X110062000Y-138530000D01*
X107362000Y-138530000D01*
X107362000Y-136630000D01*
X106262000Y-136630000D01*
X106262000Y-135130000D01*
X107362000Y-135130000D01*
X107362000Y-133930000D01*
X110062000Y-133930000D01*
X110062000Y-135130000D01*
G37*
X110062000Y-127530000D02*
X111162000Y-127530000D01*
X111162000Y-129030000D01*
X110062000Y-129030000D01*
X110062000Y-130230000D01*
X107362000Y-130230000D01*
X107362000Y-129030000D01*
X106262000Y-129030000D01*
X106262000Y-127530000D01*
X107362000Y-127530000D01*
X107362000Y-125630000D01*
X110062000Y-125630000D01*
X110062000Y-127530000D01*
G36*
X110062000Y-127530000D02*
G01*
X111162000Y-127530000D01*
X111162000Y-129030000D01*
X110062000Y-129030000D01*
X110062000Y-130230000D01*
X107362000Y-130230000D01*
X107362000Y-129030000D01*
X106262000Y-129030000D01*
X106262000Y-127530000D01*
X107362000Y-127530000D01*
X107362000Y-125630000D01*
X110062000Y-125630000D01*
X110062000Y-127530000D01*
G37*
%TO.C,C1*%
X111078000Y-101622000D02*
X112178000Y-101622000D01*
X112178000Y-103122000D01*
X111078000Y-103122000D01*
X111078000Y-104322000D01*
X108378000Y-104322000D01*
X108378000Y-103122000D01*
X107278000Y-103122000D01*
X107278000Y-101622000D01*
X108378000Y-101622000D01*
X108378000Y-99722000D01*
X111078000Y-99722000D01*
X111078000Y-101622000D01*
G36*
X111078000Y-101622000D02*
G01*
X112178000Y-101622000D01*
X112178000Y-103122000D01*
X111078000Y-103122000D01*
X111078000Y-104322000D01*
X108378000Y-104322000D01*
X108378000Y-103122000D01*
X107278000Y-103122000D01*
X107278000Y-101622000D01*
X108378000Y-101622000D01*
X108378000Y-99722000D01*
X111078000Y-99722000D01*
X111078000Y-101622000D01*
G37*
X111078000Y-109222000D02*
X112178000Y-109222000D01*
X112178000Y-110722000D01*
X111078000Y-110722000D01*
X111078000Y-112622000D01*
X108378000Y-112622000D01*
X108378000Y-110722000D01*
X107278000Y-110722000D01*
X107278000Y-109222000D01*
X108378000Y-109222000D01*
X108378000Y-108022000D01*
X111078000Y-108022000D01*
X111078000Y-109222000D01*
G36*
X111078000Y-109222000D02*
G01*
X112178000Y-109222000D01*
X112178000Y-110722000D01*
X111078000Y-110722000D01*
X111078000Y-112622000D01*
X108378000Y-112622000D01*
X108378000Y-110722000D01*
X107278000Y-110722000D01*
X107278000Y-109222000D01*
X108378000Y-109222000D01*
X108378000Y-108022000D01*
X111078000Y-108022000D01*
X111078000Y-109222000D01*
G37*
%TD*%
D15*
%TO.C,U1*%
X139212000Y-107950000D03*
X137512000Y-107950000D03*
X135812000Y-107950000D03*
X134112000Y-107950000D03*
X132412000Y-107950000D03*
D16*
X135812000Y-117100000D03*
%TD*%
D17*
%TO.C,R2*%
X110062000Y-147182500D03*
X110062000Y-150282500D03*
%TD*%
D18*
%TO.C,Q1*%
X124968000Y-103632000D03*
X122428000Y-103632000D03*
D19*
X119888000Y-103632000D03*
%TD*%
D20*
%TO.C,L1*%
X137160000Y-135152000D03*
X137160000Y-125452000D03*
%TD*%
D21*
%TO.C,J2*%
X127000000Y-146304000D03*
D22*
X119380000Y-146304000D03*
%TD*%
%TO.C,J1*%
X119380000Y-94996000D03*
D21*
X127000000Y-94996000D03*
%TD*%
D23*
%TO.C,H4*%
X101092000Y-147828000D03*
%TD*%
%TO.C,H3*%
X140970000Y-147828000D03*
%TD*%
%TO.C,H2*%
X140970000Y-92456000D03*
%TD*%
%TO.C,H1*%
X101092000Y-92456000D03*
%TD*%
D24*
%TO.C,D3*%
X126492000Y-113694000D03*
X126492000Y-120494000D03*
%TD*%
D25*
%TO.C,D2*%
X110062000Y-144823500D03*
X110062000Y-141848500D03*
%TD*%
D26*
%TO.C,D1*%
X107090000Y-119126000D03*
X113890000Y-119126000D03*
%TD*%
D27*
X139446000Y-117602000D03*
X134620000Y-117602000D03*
X133350000Y-117602000D03*
X140208000Y-116586000D03*
X138684000Y-116586000D03*
X135128000Y-116586000D03*
X132588000Y-116586000D03*
X133858000Y-116586000D03*
X133096000Y-115570000D03*
X134620000Y-115570000D03*
X139446000Y-115570000D03*
X139954000Y-114554000D03*
X138684000Y-114554000D03*
X135128000Y-114554000D03*
X133858000Y-114554000D03*
X132588000Y-114554000D03*
D28*
X126492000Y-117856000D03*
D27*
X112268000Y-150368000D03*
X111506000Y-138684000D03*
X125476000Y-138684000D03*
X106426000Y-112522000D03*
X137160000Y-138684000D03*
X137414000Y-104140000D03*
X126492000Y-111252000D03*
%LPD*%
M02*
